<?xml version="1.0" standalone="no"?>
<!DOCTYPE svg PUBLIC "-//W3C//DTD SVG 20010904//EN"
 "http://www.w3.org/TR/2001/REC-SVG-20010904/DTD/svg10.dtd">
<svg version="1.0" xmlns="http://www.w3.org/2000/svg"
 width="661.000000pt" height="661.000000pt" viewBox="0 0 661.000000 661.000000"
 preserveAspectRatio="xMidYMid meet">
<metadata>
Created by potrace 1.14, written by Peter Selinger 2001-2017
</metadata>
<g transform="translate(0.000000,661.000000) scale(0.100000,-0.100000)"
fill="#000000" stroke="none">
<path d="M2423 4658 c-170 -25 -279 -206 -222 -368 52 -148 219 -233 364 -184
60 21 129 84 159 147 34 73 31 179 -8 256 -58 110 -169 168 -293 149z m134
-92 c54 -27 52 -40 -3 -31 -108 18 -141 13 -199 -27 -58 -39 -83 -115 -64
-195 10 -49 3 -55 -15 -12 -19 44 -15 125 8 172 19 39 81 97 103 97 7 0 13 4
13 8 0 4 14 9 32 10 18 2 34 4 36 6 5 6 54 -9 89 -28z"/>
<path d="M4084 4655 c-84 -19 -154 -78 -195 -164 -34 -70 -31 -184 6 -246 74
-128 204 -180 338 -137 61 20 135 85 167 148 48 94 29 235 -42 314 -70 77
-171 109 -274 85z m175 -101 l36 -24 -60 6 c-112 13 -154 8 -194 -23 -55 -44
-83 -106 -77 -171 3 -29 8 -58 12 -65 4 -6 -1 -5 -11 4 -23 22 -31 98 -16 152
16 56 67 113 125 141 41 20 54 22 98 14 28 -5 67 -21 87 -34z"/>
<path d="M3225 4650 c-58 -18 -100 -45 -147 -94 -26 -26 -45 -52 -42 -57 3 -5
1 -9 -4 -9 -14 0 -34 -80 -35 -136 -1 -84 43 -176 114 -238 61 -55 187 -83
277 -62 81 19 168 91 203 171 19 43 36 127 30 145 -2 3 -4 19 -6 36 -12 84
-84 177 -172 220 -61 30 -162 41 -218 24z m191 -92 c24 -12 44 -27 44 -31 0
-5 -4 -6 -9 -2 -14 8 -100 18 -149 17 -106 -3 -188 -90 -198 -212 -1 -14 7
-50 17 -80 l19 -55 -23 29 c-52 64 -59 158 -17 237 26 51 50 73 115 105 61 31
134 28 201 -8z"/>
<path d="M2163 4027 c-49 -10 -93 -41 -124 -86 l-24 -36 2 -353 c1 -240 6
-365 14 -389 23 -70 95 -107 167 -85 20 6 38 10 40 8 3 -3 6 -420 3 -453 -1
-6 -24 -28 -53 -48 -99 -71 -130 -126 -130 -226 0 -46 6 -77 20 -105 21 -39
87 -114 102 -114 5 0 15 -7 24 -15 58 -58 374 -168 551 -191 11 -1 20 -3 20
-4 0 -1 11 -3 25 -5 14 -1 39 -5 55 -8 17 -3 50 -8 75 -11 25 -3 65 -9 90 -12
100 -15 649 -6 740 11 13 3 42 7 65 10 22 4 81 15 130 26 50 11 104 23 120 26
44 7 141 41 213 74 35 16 65 29 68 29 12 0 116 74 145 103 42 43 61 67 55 67
-3 0 1 15 9 33 18 44 13 143 -9 187 -18 36 -94 120 -108 120 -4 0 -22 10 -41
23 l-33 22 1 228 c1 124 4 230 8 233 4 4 13 1 22 -6 21 -17 96 -8 128 16 58
42 60 58 63 434 1 190 -2 359 -7 375 -11 38 -64 94 -106 111 -31 13 -88 17
-218 15 l-60 -1 -35 -51 -35 -51 -20 27 c-60 83 -48 78 -189 77 -110 -1 -131
-4 -152 -21 -21 -17 -28 -18 -49 -7 -16 9 -71 12 -172 12 l-148 -1 -49 -38
-49 -37 -36 27 c-20 14 -42 31 -50 37 -22 17 -299 16 -335 -2 -17 -8 -31 -10
-35 -4 -17 26 -60 35 -174 34 -130 -1 -135 -3 -169 -63 -12 -22 -24 -39 -27
-39 -3 0 -19 21 -36 46 -16 24 -39 47 -50 49 -36 9 -194 10 -232 2z m200 -66
c9 -1 17 -6 17 -11 0 -6 19 -36 43 -68 23 -31 45 -61 50 -67 9 -12 48 32 84
98 14 26 29 47 32 48 3 0 46 1 96 2 74 2 93 -1 107 -15 10 -10 18 -21 18 -25
0 -5 -37 -8 -83 -7 -45 0 -89 -3 -99 -8 -14 -7 -108 -183 -108 -202 0 -8 -26
-36 -33 -36 -2 0 -2 11 0 24 4 17 -12 49 -57 116 -84 126 -90 132 -108 117 -8
-7 -38 -12 -66 -12 -28 0 -65 -6 -83 -14 -61 -25 -61 -28 -57 -342 2 -156 5
-300 5 -319 1 -19 0 -46 0 -60 -2 -24 -2 -24 -13 -5 -13 20 -14 64 -19 486
l-3 226 29 29 c47 46 93 54 248 45z m1666 -9 c45 -72 98 -141 106 -139 5 2 26
28 47 58 66 95 57 90 144 91 114 1 116 0 147 -25 l29 -23 -103 1 c-123 1 -123
1 -189 -128 -25 -48 -52 -94 -60 -102 -13 -12 -15 -9 -16 22 0 19 -5 38 -11
41 -6 4 -18 21 -27 37 -9 17 -24 42 -34 56 -9 15 -26 41 -37 58 -19 30 -39 39
-49 23 -3 -5 -35 -7 -73 -7 -42 1 -76 -3 -90 -11 -20 -13 -21 -12 -18 7 6 29
23 47 48 51 48 7 180 0 186 -10z m-795 -45 c44 -36 50 -45 38 -56 -9 -9 -11
-25 -8 -50 4 -20 2 -43 -3 -51 -8 -11 -12 -8 -21 15 -7 17 -13 35 -14 40 -2 6
-14 36 -29 68 -26 57 -49 71 -73 47 -6 -6 -47 -12 -92 -13 -110 -5 -125 -20
-146 -142 -3 -16 -8 -41 -11 -55 -7 -37 -15 -81 -20 -120 -3 -19 -8 -46 -12
-60 -3 -14 -7 -36 -8 -50 -3 -24 -8 -54 -20 -110 -3 -14 -7 -36 -10 -50 -3
-14 -7 -36 -10 -50 -3 -14 -8 -41 -12 -60 -4 -19 -6 -43 -4 -52 3 -24 -6 -22
-23 5 -11 17 -12 34 -5 77 5 30 11 71 14 90 5 36 11 65 20 110 3 14 7 41 9 60
3 19 7 46 10 60 3 14 10 50 16 80 6 30 12 65 14 76 2 12 7 38 10 58 3 20 9 53
12 73 14 86 44 101 202 102 l123 0 53 -42z m465 28 c32 -17 15 -24 -60 -27
-35 -1 -72 -5 -82 -10 -14 -7 -58 -88 -87 -163 -61 -154 -108 -249 -127 -258
-31 -14 -42 0 -15 19 12 8 22 19 22 25 0 5 9 28 19 52 11 23 31 74 46 112 15
39 32 76 37 83 6 6 8 12 5 12 -4 0 5 27 19 60 29 66 27 90 -10 90 -25 0 -37
-18 -71 -115 -26 -72 -38 -84 -47 -49 -5 19 -3 31 5 36 9 6 8 15 -6 39 -17 30
-17 32 0 45 10 7 26 16 36 19 9 4 17 10 17 15 0 17 59 27 165 28 70 0 119 -5
134 -13z m-1402 -632 c3 -110 9 -167 19 -188 11 -23 16 -85 20 -255 2 -124 6
-278 8 -342 3 -65 1 -120 -4 -123 -23 -14 -27 40 -26 355 1 321 0 337 -20 375
-18 35 -21 58 -21 198 -1 209 17 194 24 -20z m794 170 c1 -5 3 -81 4 -171 2
-89 6 -169 9 -177 7 -19 1 -19 -18 0 -12 13 -15 47 -15 185 0 101 4 170 9 170
6 0 11 -3 11 -7z m895 -538 c2 -338 0 -536 -6 -540 -13 -8 -12 -31 -11 367 0
226 -3 349 -10 354 -6 4 -8 42 -3 107 3 56 8 135 9 177 4 89 3 85 12 77 3 -4
8 -248 9 -542z m-982 419 c-2 -26 -15 -86 -28 -134 -13 -49 -21 -92 -18 -96 4
-5 -1 -2 -11 5 -10 9 -15 21 -12 30 4 9 10 36 15 61 9 44 18 85 24 105 2 6 6
27 10 47 11 52 24 39 20 -18z m-234 -293 c34 -9 74 -9 96 1 12 6 31 7 41 3 10
-5 21 -7 26 -7 4 1 7 -2 7 -8 0 -15 37 -12 71 6 17 8 33 14 35 11 2 -2 4 -201
4 -443 0 -241 4 -445 9 -453 5 -7 22 -13 37 -13 16 0 37 -5 48 -10 10 -6 16
-6 13 -1 -3 5 78 9 190 8 155 0 197 3 206 14 9 10 12 131 14 435 0 232 2 431
2 443 1 21 2 21 35 8 36 -15 69 -13 92 5 7 7 23 9 36 4 57 -18 118 -7 148 26
13 16 15 -3 13 -169 -1 -102 -2 -192 -2 -199 -1 -10 -14 -12 -53 -7 -29 3 -61
8 -70 11 -31 9 -58 -6 -58 -31 0 -24 11 -31 65 -39 105 -16 115 -19 115 -32 0
-10 -8 -13 -27 -9 -160 30 -221 35 -234 19 -19 -24 1 -60 33 -56 7 1 170 -25
206 -33 21 -5 22 -10 22 -105 0 -87 2 -101 19 -109 10 -6 20 -8 23 -6 4 4 188
8 302 6 l50 -1 -22 -21 c-19 -17 -137 -78 -167 -86 -5 -1 -35 -10 -65 -18
-101 -29 -208 -53 -270 -60 -14 -1 -50 -6 -80 -10 -30 -4 -75 -9 -100 -11 -62
-5 -457 -5 -500 0 -19 2 -62 7 -95 10 -33 4 -67 9 -75 11 -8 2 -37 7 -65 11
-27 3 -53 8 -56 10 -3 2 -21 6 -40 9 -19 3 -63 14 -99 25 -36 11 -83 25 -105
32 -22 6 -45 15 -51 20 -7 5 -22 11 -35 13 -25 5 -102 56 -95 63 3 2 82 4 176
4 93 0 171 3 172 6 1 4 3 36 4 72 6 132 5 128 33 135 43 11 63 15 126 21 33 4
70 10 83 15 40 15 20 73 -24 65 -10 -2 -41 -7 -69 -11 -57 -8 -79 -12 -117
-21 -21 -5 -28 -3 -28 9 0 15 27 23 119 32 51 5 75 29 57 57 -11 19 -24 19
-138 2 -32 -4 -38 -2 -39 13 0 10 -1 100 -2 200 l-2 182 20 -22 c11 -12 27
-24 35 -26z m379 -423 c0 -247 -3 -418 -9 -418 -18 0 -21 23 -20 157 1 76 1
147 1 158 0 11 0 58 0 105 3 320 1 439 -5 451 -4 8 1 3 12 -10 19 -24 20 -41
21 -443z m1291 -148 c49 -48 66 -86 35 -74 -8 4 -12 10 -9 15 3 5 -1 6 -9 3
-8 -3 -18 0 -22 5 -3 6 -10 9 -15 6 -5 -3 -18 -1 -29 5 -15 7 -20 20 -19 50 0
22 5 40 10 40 5 0 31 -22 58 -50z m-2194 -5 c0 -42 -3 -45 -37 -59 -20 -8 -46
-27 -58 -43 l-22 -28 6 40 c4 22 21 59 38 82 28 36 40 46 67 52 3 0 6 -19 6
-44z m165 -272 c50 -24 177 -72 209 -78 3 -1 19 -4 35 -8 49 -12 78 -18 115
-23 19 -3 42 -8 50 -11 8 -4 26 -7 40 -8 14 -2 43 -5 65 -9 114 -19 245 -28
410 -27 156 1 243 7 385 26 19 2 53 7 75 9 22 3 51 8 65 12 14 3 34 7 45 9 11
2 20 4 20 5 0 1 11 4 25 6 14 2 34 6 45 8 11 1 27 6 35 9 8 3 40 13 70 23 52
16 125 48 178 78 13 8 38 27 55 43 27 26 39 30 77 28 25 -1 47 -3 49 -4 9 -3
-43 -51 -56 -51 -7 0 -13 -4 -13 -8 0 -7 -40 -31 -60 -37 -3 -1 -30 -13 -60
-27 -152 -71 -340 -124 -510 -143 -30 -3 -84 -9 -120 -13 -136 -14 -700 -5
-729 12 -3 2 -31 7 -61 10 -66 8 -125 18 -228 41 -33 8 -183 54 -207 65 -100
43 -165 75 -194 97 -32 25 -33 27 -16 40 11 7 27 13 37 13 10 0 18 5 18 11 0
6 20 -7 44 -28 24 -21 72 -52 107 -70z"/>
</g>
</svg>
